<svg width="80" height="40" viewBox="0 0 80 40" fill="none" xmlns="http://www.w3.org/2000/svg">
<path d="M22.624 0.311997C24.48 0.311997 26.64 0.551998 29.104 1.032C31.6 1.512 33.424 2.024 34.576 2.568V12.792H30.016C27.552 8.152 24.16 5.832 19.84 5.832C18.08 5.832 16.464 6.392 14.992 7.512C13.52 8.632 12.352 10.168 11.488 12.12C10.656 14.072 10.24 16.264 10.24 18.696C10.24 21.448 10.656 23.976 11.488 26.28C12.352 28.552 13.648 30.376 15.376 31.752C17.104 33.096 19.248 33.768 21.808 33.768C24.72 33.768 28.864 32.168 34.24 28.968L36.16 32.04L27.328 38.904C25.92 39.32 24.56 39.592 23.248 39.72C21.968 39.88 20.592 39.96 19.12 39.96C15.536 39.96 12.352 39.144 9.568 37.512C6.784 35.88 4.624 33.64 3.088 30.792C1.552 27.912 0.784 24.648 0.784 21C0.784 17.256 1.936 13.8 4.24 10.632C6.544 7.432 9.408 4.92 12.832 3.096C16.256 1.24 19.52 0.311997 22.624 0.311997ZM61.3559 0.791997C64.9399 0.791997 68.1079 1.592 70.8599 3.192C73.6439 4.76 75.7879 6.952 77.2919 9.768C78.8279 12.584 79.5959 15.768 79.5959 19.32C79.5959 22.968 78.4439 26.344 76.1399 29.448C73.8679 32.52 71.0359 34.968 67.6439 36.792C64.2519 38.584 61.0199 39.48 57.9479 39.48C56.4759 39.48 55.0199 39.4 53.5799 39.24C51.1799 39.08 49.3399 39 48.0599 39H40.4759V36.312L44.9879 32.76V6.024L39.6599 4.392L41.2439 1.272H48.0119C50.9559 1.272 53.8359 1.176 56.6519 0.983997C58.8279 0.855997 60.3959 0.791997 61.3559 0.791997ZM59.3399 35.016C61.3559 35.016 63.1799 34.44 64.8119 33.288C66.4759 32.136 67.7719 30.536 68.6999 28.488C69.6599 26.44 70.1399 24.136 70.1399 21.576C70.1399 18.504 69.6759 15.736 68.7479 13.272C67.8519 10.776 66.4599 8.792 64.5719 7.32C62.7159 5.816 60.4119 5.064 57.6599 5.064C56.2199 5.064 54.8919 5.448 53.6759 6.216V34.104C55.3079 34.712 57.1799 35.016 59.2919 35.016H59.3399Z" fill="#FF0000"/>
</svg>
